REM DIRINDEX 1\4,1\2\5,1\2\6,1\2\7,1\3\8,1\3\9,1\3\10,1\3\11
REM DIRNAME cjc108,folder01,folder02,folder03,folder04,folder05,folder06,folder07,folder08,folder09,folder10
TITLE ""
FILE "t_k_330-344.mp3" MP3
  TRACK 01 AUDIO
    TITLE "5:cjc108_0992"
    INDEX 01 00:00:00
  TRACK 02 AUDIO
    TITLE "0:"
    INDEX 01 00:00:68
  TRACK 03 AUDIO
    TITLE "6:cjc108_0993"
    INDEX 01 00:01:11
  TRACK 04 AUDIO
    TITLE "0:"
    INDEX 01 00:03:74
  TRACK 05 AUDIO
    TITLE "7:cjc108_0994"
    INDEX 01 00:04:13
  TRACK 06 AUDIO
    TITLE "0:"
    INDEX 01 00:09:00
  TRACK 07 AUDIO
    TITLE "5:cjc108_0995"
    INDEX 01 00:09:63
  TRACK 08 AUDIO
    TITLE "0:"
    INDEX 01 00:11:33
  TRACK 09 AUDIO
    TITLE "6:cjc108_0996"
    INDEX 01 00:11:44
  TRACK 10 AUDIO
    TITLE "0:"
    INDEX 01 00:13:43
  TRACK 11 AUDIO
    TITLE "7:cjc108_0997"
    INDEX 01 00:13:61
  TRACK 12 AUDIO
    TITLE "0:"
    INDEX 01 00:19:07
  TRACK 13 AUDIO
    TITLE "5:cjc108_0998"
    INDEX 01 00:20:02
  TRACK 14 AUDIO
    TITLE "0:"
    INDEX 01 00:21:47
  TRACK 15 AUDIO
    TITLE "6:cjc108_0999"
    INDEX 01 00:22:01
  TRACK 16 AUDIO
    TITLE "0:"
    INDEX 01 00:24:72
  TRACK 17 AUDIO
    TITLE "7:cjc108_1000"
    INDEX 01 00:25:25
  TRACK 18 AUDIO
    TITLE "0:"
    INDEX 01 00:30:22
  TRACK 19 AUDIO
    TITLE "5:cjc108_1001"
    INDEX 01 00:31:20
  TRACK 20 AUDIO
    TITLE "0:"
    INDEX 01 00:32:27
  TRACK 21 AUDIO
    TITLE "6:cjc108_1002"
    INDEX 01 00:32:37
  TRACK 22 AUDIO
    TITLE "0:"
    INDEX 01 00:34:55
  TRACK 23 AUDIO
    TITLE "7:cjc108_1003"
    INDEX 01 00:35:00
  TRACK 24 AUDIO
    TITLE "0:"
    INDEX 01 00:39:37
  TRACK 25 AUDIO
    TITLE "5:cjc108_1004"
    INDEX 01 00:40:19
  TRACK 26 AUDIO
    TITLE "0:"
    INDEX 01 00:41:34
  TRACK 27 AUDIO
    TITLE "6:cjc108_1005"
    INDEX 01 00:41:45
  TRACK 28 AUDIO
    TITLE "0:"
    INDEX 01 00:43:54
  TRACK 29 AUDIO
    TITLE "7:cjc108_1006"
    INDEX 01 00:43:68
  TRACK 30 AUDIO
    TITLE "0:"
    INDEX 01 00:50:17
  TRACK 31 AUDIO
    TITLE "5:cjc108_1007"
    INDEX 01 00:51:05
  TRACK 32 AUDIO
    TITLE "0:"
    INDEX 01 00:52:04
  TRACK 33 AUDIO
    TITLE "6:cjc108_1008"
    INDEX 01 00:52:24
  TRACK 34 AUDIO
    TITLE "0:"
    INDEX 01 00:55:08
  TRACK 35 AUDIO
    TITLE "7:cjc108_1009"
    INDEX 01 00:55:24
  TRACK 36 AUDIO
    TITLE "0:"
    INDEX 01 00:59:34
  TRACK 37 AUDIO
    TITLE "5:cjc108_1010"
    INDEX 01 01:00:17
  TRACK 38 AUDIO
    TITLE "0:"
    INDEX 01 01:01:21
  TRACK 39 AUDIO
    TITLE "6:cjc108_1011"
    INDEX 01 01:01:56
  TRACK 40 AUDIO
    TITLE "0:"
    INDEX 01 01:02:54
  TRACK 41 AUDIO
    TITLE "7:cjc108_1012"
    INDEX 01 01:03:08
  TRACK 42 AUDIO
    TITLE "0:"
    INDEX 01 01:09:46
  TRACK 43 AUDIO
    TITLE "5:cjc108_1013"
    INDEX 01 01:10:30
  TRACK 44 AUDIO
    TITLE "0:"
    INDEX 01 01:11:37
  TRACK 45 AUDIO
    TITLE "6:cjc108_1014"
    INDEX 01 01:11:64
  TRACK 46 AUDIO
    TITLE "0:"
    INDEX 01 01:14:51
  TRACK 47 AUDIO
    TITLE "7:cjc108_1015"
    INDEX 01 01:14:70
  TRACK 48 AUDIO
    TITLE "0:"
    INDEX 01 01:20:10
  TRACK 49 AUDIO
    TITLE "5:cjc108_1016"
    INDEX 01 01:20:57
  TRACK 50 AUDIO
    TITLE "0:"
    INDEX 01 01:21:70
  TRACK 51 AUDIO
    TITLE "6:cjc108_1017"
    INDEX 01 01:22:01
  TRACK 52 AUDIO
    TITLE "0:"
    INDEX 01 01:23:01
  TRACK 53 AUDIO
    TITLE "7:cjc108_1018"
    INDEX 01 01:23:20
  TRACK 54 AUDIO
    TITLE "0:"
    INDEX 01 01:28:51
  TRACK 55 AUDIO
    TITLE "5:cjc108_1019"
    INDEX 01 01:29:35
  TRACK 56 AUDIO
    TITLE "0:"
    INDEX 01 01:30:44
  TRACK 57 AUDIO
    TITLE "6:cjc108_1020"
    INDEX 01 01:30:64
  TRACK 58 AUDIO
    TITLE "0:"
    INDEX 01 01:31:63
  TRACK 59 AUDIO
    TITLE "7:cjc108_1021"
    INDEX 01 01:32:10
  TRACK 60 AUDIO
    TITLE "0:"
    INDEX 01 01:35:39
  TRACK 61 AUDIO
    TITLE "5:cjc108_1022"
    INDEX 01 01:36:25
  TRACK 62 AUDIO
    TITLE "0:"
    INDEX 01 01:37:42
  TRACK 63 AUDIO
    TITLE "6:cjc108_1023"
    INDEX 01 01:37:48
  TRACK 64 AUDIO
    TITLE "0:"
    INDEX 01 01:39:66
  TRACK 65 AUDIO
    TITLE "7:cjc108_1024"
    INDEX 01 01:40:21
  TRACK 66 AUDIO
    TITLE "0:"
    INDEX 01 01:46:43
  TRACK 67 AUDIO
    TITLE "5:cjc108_1025"
    INDEX 01 01:47:37
  TRACK 68 AUDIO
    TITLE "0:"
    INDEX 01 01:48:50
  TRACK 69 AUDIO
    TITLE "6:cjc108_1026"
    INDEX 01 01:48:58
  TRACK 70 AUDIO
    TITLE "0:"
    INDEX 01 01:50:70
  TRACK 71 AUDIO
    TITLE "7:cjc108_1027"
    INDEX 01 01:51:17
  TRACK 72 AUDIO
    TITLE "0:"
    INDEX 01 01:56:53
  TRACK 73 AUDIO
    TITLE "5:cjc108_1028"
    INDEX 01 01:57:45
  TRACK 74 AUDIO
    TITLE "0:"
    INDEX 01 01:58:68
  TRACK 75 AUDIO
    TITLE "6:cjc108_1029"
    INDEX 01 01:59:12
  TRACK 76 AUDIO
    TITLE "0:"
    INDEX 01 02:01:25
  TRACK 77 AUDIO
    TITLE "7:cjc108_1030"
    INDEX 01 02:01:60
  TRACK 78 AUDIO
    TITLE "0:"
    INDEX 01 02:06:71
  TRACK 79 AUDIO
    TITLE "5:cjc108_1031"
    INDEX 01 02:07:69
  TRACK 80 AUDIO
    TITLE "0:"
    INDEX 01 02:08:66
  TRACK 81 AUDIO
    TITLE "6:cjc108_1032"
    INDEX 01 02:09:15
  TRACK 82 AUDIO
    TITLE "0:"
    INDEX 01 02:11:19
  TRACK 83 AUDIO
    TITLE "7:cjc108_1033"
    INDEX 01 02:11:43
  TRACK 84 AUDIO
    TITLE "0:"
    INDEX 01 02:17:18
  TRACK 85 AUDIO
    TITLE "5:cjc108_1034"
    INDEX 01 02:18:02
  TRACK 86 AUDIO
    TITLE "0:"
    INDEX 01 02:19:15
  TRACK 87 AUDIO
    TITLE "6:cjc108_1035"
    INDEX 01 02:19:19
  TRACK 88 AUDIO
    TITLE "0:"
    INDEX 01 02:21:12
  TRACK 89 AUDIO
    TITLE "7:cjc108_1036"
    INDEX 01 02:21:33
  TRACK 90 AUDIO
    TITLE "0:"
    INDEX 01 02:25:27
